<svg width="40" height="32" viewBox="0 0 40 32" fill="none" xmlns="http://www.w3.org/2000/svg">
<path fill-rule="evenodd" clip-rule="evenodd" d="M11.1111 7.11111C11.1111 5.22513 12.0476 3.41639 13.7146 2.0828C15.3816 0.749204 17.6425 0 20 0C22.3575 0 24.6184 0.749204 26.2854 2.0828C27.9524 3.41639 28.8889 5.22513 28.8889 7.11111C28.8889 8.9971 27.9524 10.8058 26.2854 12.1394C24.6184 13.473 22.3575 14.2222 20 14.2222C17.6425 14.2222 15.3816 13.473 13.7146 12.1394C12.0476 10.8058 11.1111 8.9971 11.1111 7.11111ZM11.1111 17.7778C8.16426 17.7778 5.33811 18.7143 3.25437 20.3813C1.17063 22.0483 0 24.3092 0 26.6667C0 28.0812 0.702379 29.4377 1.95262 30.4379C3.20286 31.4381 4.89856 32 6.66667 32H33.3333C35.1014 32 36.7971 31.4381 38.0474 30.4379C39.2976 29.4377 40 28.0812 40 26.6667C40 24.3092 38.8294 22.0483 36.7456 20.3813C34.6619 18.7143 31.8357 17.7778 28.8889 17.7778H11.1111Z" fill="#F5F5F5"/>
</svg>
