<svg width="50" height="40" viewBox="0 0 50 40" fill="none" xmlns="http://www.w3.org/2000/svg">
<path d="M14.5834 30H35.4167V15.5417L25.0001 9.16667L14.5834 15.5417V30ZM10.4167 33.3333V18.0833L4.58341 21.6667L2.1355 19.0417L25.0001 5L47.9167 19L45.4167 21.6667L39.5834 18.0833V33.3333H10.4167ZM25.0001 26.6667C26.1459 26.6667 27.1272 26.3406 27.9438 25.6883C28.7605 25.0361 29.1681 24.2511 29.1667 23.3333C29.1667 22.5833 28.9063 21.785 28.3855 20.9383C27.8647 20.0917 26.7362 18.6678 25.0001 16.6667C23.264 18.6667 22.1355 20.0906 21.6147 20.9383C21.0938 21.7861 20.8334 22.5844 20.8334 23.3333C20.8334 24.25 21.2417 25.035 22.0584 25.6883C22.8751 26.3417 23.8556 26.6678 25.0001 26.6667Z" fill="white"/>
</svg>
