<svg width="40" height="32" viewBox="0 0 40 32" fill="none" xmlns="http://www.w3.org/2000/svg">
<path d="M21.25 20C22.2446 20 23.1984 20.3161 23.9017 20.8787C24.6049 21.4413 25 22.2044 25 23V24C25 27.942 20.35 32 12.5 32C4.65 32 0 27.942 0 24V23C0 22.2044 0.395088 21.4413 1.09835 20.8787C1.80161 20.3161 2.75544 20 3.75 20H21.25ZM12.5 7C14.3234 7 16.072 7.57946 17.3614 8.61091C18.6507 9.64236 19.375 11.0413 19.375 12.5C19.375 13.9587 18.6507 15.3576 17.3614 16.3891C16.072 17.4205 14.3234 18 12.5 18C10.6766 18 8.92795 17.4205 7.63864 16.3891C6.34933 15.3576 5.625 13.9587 5.625 12.5C5.625 11.0413 6.34933 9.64236 7.63864 8.61091C8.92795 7.57946 10.6766 7 12.5 7ZM35 0C36.261 0.000185152 37.4754 0.381543 38.3998 1.06767C39.3242 1.75381 39.8904 2.69403 39.985 3.7L40 4V8C40.0004 9.00915 39.524 9.98113 38.6663 10.7211C37.8085 11.4611 36.6329 11.9143 35.375 11.99L35 12H31.2475L28.2525 15.2C26.9275 16.612 24.2425 16.04 23.81 14.448L23.7675 14.226L23.75 14V11.87L23.555 11.83C22.656 11.6128 21.8515 11.1975 21.2339 10.6316C20.6162 10.0656 20.2102 9.37195 20.0625 8.63L20.0125 8.298L20 8V4C19.9996 2.99085 20.476 2.01887 21.3337 1.2789C22.1915 0.538941 23.3671 0.0856866 24.625 0.0100002L25 0H35Z" fill="white"/>
</svg>
