<svg width="40" height="32" viewBox="0 0 40 32" fill="none" xmlns="http://www.w3.org/2000/svg">
<path d="M25.8333 26.5667L18.75 20.9L21.0833 19.0333L25.8333 22.8333L35.25 15.3L37.5833 17.1667L25.8333 26.5667ZM35 13.3333H31.6667V6.66667H28.3333V10.6667H11.6667V6.66667H8.33333V25.3333H18.3333V28H8.33333C7.41667 28 6.63222 27.7391 5.98 27.2173C5.32778 26.6956 5.00111 26.0676 5 25.3333V6.66667C5 5.93334 5.32667 5.30578 5.98 4.784C6.63333 4.26222 7.41778 4.00089 8.33333 4H15.2917C15.5972 3.22222 16.1944 2.58356 17.0833 2.084C17.9722 1.58445 18.9444 1.33422 20 1.33334C21.1111 1.33334 22.1044 1.58356 22.98 2.084C23.8556 2.58445 24.4456 3.22311 24.75 4H31.6667C32.5833 4 33.3683 4.26134 34.0217 4.784C34.675 5.30667 35.0011 5.93422 35 6.66667V13.3333ZM20 6.66667C20.4722 6.66667 20.8683 6.53867 21.1883 6.28267C21.5083 6.02667 21.6678 5.71022 21.6667 5.33334C21.6656 4.95645 21.5056 4.64 21.1867 4.384C20.8678 4.128 20.4722 4 20 4C19.5278 4 19.1322 4.128 18.8133 4.384C18.4944 4.64 18.3344 4.95645 18.3333 5.33334C18.3322 5.71022 18.4922 6.02711 18.8133 6.284C19.1344 6.54089 19.53 6.66845 20 6.66667Z" fill="#F5F5F5"/>
</svg>
