<svg width="26" height="24" viewBox="0 0 26 24" fill="none" xmlns="http://www.w3.org/2000/svg">
<path d="M16.3088 6.75V4.125C16.3088 3.42881 16.0299 2.76113 15.5335 2.26884C15.0371 1.77656 14.3638 1.5 13.6618 1.5H4.39706C3.69502 1.5 3.02173 1.77656 2.52531 2.26884C2.02889 2.76113 1.75 3.42881 1.75 4.125V19.875C1.75 20.5712 2.02889 21.2389 2.52531 21.7312C3.02173 22.2234 3.69502 22.5 4.39706 22.5H13.6618C14.3638 22.5 15.0371 22.2234 15.5335 21.7312C16.0299 21.2389 16.3088 20.5712 16.3088 19.875V17.25M8.36765 12H24.25M24.25 12L20.2794 8.0625M24.25 12L20.2794 15.9375" stroke="white" stroke-width="2" stroke-linecap="round" stroke-linejoin="round"/>
</svg>
