<svg width="34" height="25" viewBox="0 0 34 25" fill="none" xmlns="http://www.w3.org/2000/svg">
<path d="M3.66669 24.6667V7.46666L0.416687 1.8L3.41669 0.666664L7.33335 7.4H26.6667L30.5834 0.666664L33.5834 1.8L30.3334 7.46666V24.6667H3.66669ZM13.6667 15.3333H20.3334C20.8056 15.3333 21.2017 15.2053 21.5217 14.9493C21.8417 14.6933 22.0011 14.3769 22 14C21.9989 13.6231 21.8389 13.3067 21.52 13.0507C21.2011 12.7947 20.8056 12.6667 20.3334 12.6667H13.6667C13.1945 12.6667 12.7989 12.7947 12.48 13.0507C12.1611 13.3067 12.0011 13.6231 12 14C11.9989 14.3769 12.1589 14.6938 12.48 14.9507C12.8011 15.2076 13.1967 15.3351 13.6667 15.3333Z" fill="white"/>
</svg>
