<svg width="34" height="34" viewBox="0 0 34 34" fill="none" xmlns="http://www.w3.org/2000/svg">
<path d="M11.7671 33V14.4871C11.7671 13.9348 12.2148 13.4871 12.7671 13.4871H21.5373C22.0896 13.4871 22.5373 13.9348 22.5373 14.4871V33M11.7671 33L11.7699 24.5426C11.7701 23.9901 11.3223 23.5422 10.7699 23.5422H2C1.44772 23.5422 1 23.9899 1 24.5422V32C1 32.5523 1.44772 33 2 33H11.7671ZM11.7671 33H22.5373M22.5373 33V2C22.5373 1.44772 22.985 1 23.5373 1H32C32.5523 1 33 1.44772 33 2V32C33 32.5523 32.5523 33 32 33H22.5373Z" stroke="white" stroke-width="2" stroke-linecap="round" stroke-linejoin="round"/>
</svg>
