<svg width="512" height="512" viewBox="0 0 512 512" fill="none" xmlns="http://www.w3.org/2000/svg">
<path d="M225 25V55H287V25H225ZM233 73V101.6L228 104.1C211 112.6 187.4 120.4 168.6 131.7C159 137.5 151 143.7 145.4 151H366.6C361 143.7 353 137.5 343.4 131.7C324.6 120.4 301 112.6 284 104.1L279 101.6V73H233ZM121 169V185H391V169H121ZM137 203V231H375V203H137ZM121 249V279H391V249H121ZM137 297V391H375V297H137ZM137 409V448C137 449 138.1 452.9 141 457.3C143.9 461.6 148.4 466.6 153.8 471.1C164.6 480.1 179 487 192 487H320C333 487 347.4 480.1 358.2 471.1C363.6 466.6 368.1 461.6 371 457.3C373.9 452.9 375 449 375 448V409H137Z" fill="black"/>
</svg>
